<?xml version="1.0" encoding="UTF-8"?>
<svg xmlns="http://www.w3.org/2000/svg" xmlns:xlink="http://www.w3.org/1999/xlink" viewBox="0 0 351.53 498.47">
  <defs>
    <style>
      .cls-1 {
        fill: #b3b4b4;
        font-family: Tajawal-Bold, Tajawal;
        font-size: 16.47px;
      }

      .cls-1, .cls-2 {
        font-weight: 700;
      }

      .cls-3 {
        fill: #253b4a;
      }

      .cls-4 {
        fill: #35424b;
        fill-rule: evenodd;
      }

      .cls-2 {
        fill: #b3b4b5;
        font-family: Sitka-SmallBold, Sitka;
        font-size: 77.04px;
        font-variation-settings: 'opsz' 6, 'wght' 700;
      }

      .cls-5 {
        fill: none;
      }

      .cls-6 {
        mix-blend-mode: multiply;
        opacity: .4;
      }

      .cls-7 {
        isolation: isolate;
      }

      .cls-8 {
        clip-path: url(#clippath);
      }
    </style>
    <clipPath id="clippath">
      <path class="cls-5" d="M42,288.58l260.67-.3c10.32-.01,18.68-9.68,18.66-21.59l-.18-153.45c-.01-11.91-8.39-21.56-18.71-21.55l-260.67.3c-10.32.01-18.68,9.68-18.66,21.59l.18,153.45c.01,11.91,8.39,21.56,18.71,21.55Z"/>
    </clipPath>
  </defs>
  <g class="cls-7">
    <g id="Layer_1" data-name="Layer 1">
      <g class="cls-8">
        <rect class="cls-3" x=".13" y="77.47" width="351.27" height="227.31" transform="translate(-.22 .2) rotate(-.07)"/>
        <g class="cls-6">
          <path class="cls-4" d="M316.54,331.33c3.19,2.17,6.33,4.3,9.46,6.42v-.9c-2.59-1.69-5.18-3.37-7.77-5.06-.39-.25-.77-.55-1.27-.9.28-.3.45-.57.68-.71,2.78-1.81,5.57-3.63,8.35-5.44v-.87c-2.69,1.83-5.38,3.66-8.07,5.49-.38.26-.78.47-1.35.8-.03-.76-.08-1.32-.08-1.88.08-9.03.18-18.06.22-27.09,0-1.25.31-2,1.28-2.66,2.66-1.79,5.31-3.61,7.96-5.42v-.85c-2.84,1.84-5.68,3.69-8.52,5.54-.79.51-1.4.59-2.23.05-6.97-4.59-13.96-9.11-20.95-13.67-.3-.19-.59-.43-1.02-.75.35-.31.58-.58.86-.76,7.07-4.62,14.15-9.21,21.21-13.83.7-.46,1.25-.5,1.96-.03,2.88,1.89,5.77,3.76,8.66,5.64v-1.03c-2.69-1.83-5.37-3.67-8.06-5.49-.72-.49-1.09-1-1.1-2.04-.05-9.32-.15-18.64-.23-27.95,0-.4.04-.79.08-1.46.58.35.94.55,1.29.77,2.66,1.82,5.32,3.63,7.99,5.45v-.91c-2.65-1.72-5.29-3.45-7.94-5.17-.3-.19-.57-.43-1.08-.82.65-.44,1.04-.7,1.44-.96,2.52-1.64,5.04-3.28,7.56-4.92v-.72c-2.69,1.83-5.37,3.66-8.06,5.49-.29.2-.62.35-1.11.62-.04-.63-.12-1.13-.11-1.61.07-9.2.16-18.41.23-27.61,0-.94.16-1.62.95-2.16,2.69-1.82,5.37-3.65,8.06-5.48v-.99c-2.72,1.77-5.44,3.54-8.15,5.32-.95.63-1.67.65-2.63.02-6.84-4.51-13.71-8.95-20.57-13.42-.38-.25-.75-.55-1.26-.93.43-.36.72-.66,1.05-.87,6.99-4.55,14-9.08,20.98-13.64.67-.44,1.22-.61,1.96-.12,2.86,1.88,5.73,3.74,8.6,5.61v-1.04c-2.97-2.02-5.94-4.05-8.91-6.08-.09-10.11-.18-20.23-.28-30.37.51.09,4.56,2.67,9.15,5.73v-.82c-2.61-1.7-5.22-3.39-7.83-5.09-.25-.17-.49-.38-.97-.76.63-.42,1.02-.68,1.41-.94,2.46-1.6,4.91-3.2,7.37-4.8v-.94c-2.49,1.7-4.98,3.4-7.47,5.1-.46.32-.93.62-1.57,1.05-.04-.81-.08-1.31-.08-1.83.07-9.14.17-18.28.23-27.42,0-1.05.25-1.7,1.07-2.26,2.6-1.76,5.2-3.53,7.79-5.3v-.88c-2.69,1.75-5.37,3.49-8.05,5.25-.85.55-1.49.61-2.37.03-6.97-4.59-13.98-9.12-20.97-13.67-.3-.2-.57-.44-1.08-.86,1.27-.84,2.31-1.56,3.37-2.24,6.11-3.97,12.23-7.91,18.32-11.93,1.03-.69,1.81-.78,2.9-.06,2.61,1.73,5.24,3.44,7.86,5.15v-1.04c-2.57-1.76-5.15-3.52-7.73-5.27-.74-.5-1.05-1.05-1.06-2.06-.05-9.33-.15-18.65-.23-27.98,0-.39.04-.79.09-1.49,2.99,2.04,5.95,4.06,8.9,6.07v-.9c-2.46-1.6-4.91-3.2-7.37-4.8-.38-.25-.72-.56-1.3-1,.62-.41,1.04-.7,1.46-.97,2.39-1.56,4.79-3.11,7.19-4.67v-.71c-2.61,1.78-5.22,3.56-7.83,5.35-.26.17-.54.31-.94.54-.05-.54-.14-.98-.13-1.42.07-9.25.17-18.51.23-27.76,0-.97.19-1.61.98-2.14,2.56-1.72,5.11-3.47,7.66-5.2v-1.09c-2.68,1.74-5.36,3.47-8.03,5.21-.72.47-1.3.63-2.09.11-6.74-4.43-13.5-8.81-20.25-13.21h-1.01c6.97,4.74,13.93,9.51,20.9,14.24.57.39.89.82.89,1.65.06,9.61.15,19.22.23,28.83,0,.17-.04.35-.11.8-.54-.32-.95-.52-1.32-.78-6.82-4.65-13.64-9.31-20.46-13.95-.69-.47-1.16-.9-1.16-2-.04-9.44-.15-18.88-.23-28.31,0-.15,0-.3.02-.48h-.57c.03.25.06.49.06.72-.08,9.31-.17,18.63-.23,27.94,0,.82-.15,1.42-.83,1.88-7.18,4.86-14.34,9.76-21.51,14.65-.13.09-.28.13-.64.29-.03-.64-.08-1.09-.07-1.54.08-9.2.17-18.39.24-27.59,0-.95.15-1.62.95-2.16,6.96-4.7,13.9-9.46,20.84-14.2h-.76c-6.74,4.39-13.5,8.77-20.23,13.19-.85.56-1.49.61-2.37.03-6.71-4.42-13.46-8.79-20.19-13.17h-1.4c3.76,2.13,18.48,12.04,22.17,14.96.09,10.08.18,20.16.27,30.26-1.27-.28-18.15-11.57-22.97-15.32-.09-9.88-.18-19.87-.27-29.89h-.55c.04.28.07.55.07.8-.08,9.26-.17,18.53-.23,27.79,0,.95-.17,1.62-.96,2.16-7.06,4.77-14.09,9.59-21.13,14.39-.21.15-.45.22-.89.44-.03-.71-.06-1.17-.06-1.63.08-9.21.17-18.41.23-27.62,0-.95.17-1.61.97-2.15,6.96-4.7,13.89-9.46,20.84-14.19h-.94c-6.75,4.4-13.51,8.79-20.25,13.2-.67.44-1.23.61-1.97.13-6.78-4.45-13.58-8.85-20.37-13.28h-1.37c4.13,2.44,19.9,13.1,22.11,14.98.09,10.05.18,20.19.27,30.35-1.21-.35-20.61-13.42-23.03-15.48-.09-9.89-.18-19.85-.27-29.85h-.53c.02.43.04.79.04,1.14-.08,9.03-.19,18.06-.21,27.08,0,1.38-.42,2.09-1.41,2.76-6.76,4.55-13.48,9.17-20.22,13.76-.38.26-.78.46-1.35.8-.03-.75-.08-1.32-.08-1.87.08-9.03.17-18.06.22-27.09,0-1.25.31-2,1.28-2.66,6.76-4.55,13.48-9.18,20.21-13.78.06-.04.13-.09.19-.13h-.69c-6.75,4.38-13.5,8.75-20.23,13.16-.78.5-1.39.65-2.23.1-6.73-4.43-13.49-8.81-20.24-13.21h-1.01c7.39,5.05,14.55,9.93,21.75,14.84.09,10.15.18,20.27.27,30.43-1.2-.37-21.07-13.77-22.98-15.47-.09-9.78-.17-19.62-.27-29.8h-.55c.04.26.07.52.06.76-.07,9.31-.16,18.63-.23,27.94,0,.81-.13,1.42-.82,1.88-7.18,4.87-14.34,9.77-21.5,14.66-.13.08-.28.13-.64.29-.03-.63-.08-1.08-.08-1.53.08-9.2.18-18.39.23-27.59,0-1.05.26-1.71,1.07-2.26,6.94-4.69,13.86-9.43,20.79-14.15h-1.07c-6.73,4.38-13.46,8.74-20.19,13.13-.72.47-1.3.62-2.1.1-6.72-4.42-13.47-8.79-20.21-13.18h-1.01c6.92,4.71,13.83,9.44,20.75,14.14.62.42.99.85,1,1.76.06,9.55.15,19.1.23,28.66,0,.23-.05.45-.1.98-.62-.38-1.07-.64-1.49-.93-6.74-4.59-13.46-9.21-20.21-13.76-.89-.6-1.26-1.26-1.26-2.47-.04-9.09-.14-18.17-.22-27.25,0-.35.01-.7.03-1.12h-.58c.03.26.05.5.05.74-.07,9.25-.17,18.51-.23,27.76,0,.88-.1,1.53-.85,2.04-7.14,4.83-14.25,9.7-21.38,14.56-.17.12-.36.18-.74.37-.03-.63-.07-1.03-.07-1.42.08-9.26.18-18.51.23-27.77,0-.97.2-1.61.98-2.13,6.94-4.69,13.85-9.43,20.78-14.15h-.76c-6.65,4.32-13.3,8.62-19.93,12.99-1.04.69-1.83.75-2.91.04-6.6-4.38-13.25-8.67-19.89-12.99h-1.37c3.93,2.28,18.95,12.4,22.1,14.95.09,10,.18,20.12.28,30.69-7.86-5.36-15.37-10.49-22.98-15.68-.09-9.97-.18-19.94-.27-29.96h-.55c.04.17.07.34.07.51-.07,9.44-.17,18.88-.22,28.32,0,1.07-.47,1.55-1.17,2.02-5.83,3.94-11.65,7.9-17.47,11.86-1.01.68-1.99,1.4-3,2.09-.38.25-.78.46-1.32.76-.04-.7-.09-1.21-.08-1.71.08-9.15.16-18.29.23-27.44,0-.92.07-1.64.89-2.2,6.98-4.71,13.93-9.47,20.88-14.21h-.95c-6.76,4.41-13.53,8.8-20.29,13.22-.62.41-1.15.56-1.83.11-4.15-2.72-8.3-5.42-12.45-8.13v.94c3.83,2.61,7.66,5.22,11.51,7.81.96.65,1.29,1.37,1.3,2.64.03,9.03.14,18.06.22,27.09,0,.57-.04,1.13-.07,1.88-.55-.32-.96-.53-1.34-.79-3.86-2.63-7.72-5.27-11.58-7.9v1.02c3.96,2.58,7.93,5.16,11.89,7.74.18.11.33.27.65.52-.35.32-.61.63-.93.84-3.86,2.52-7.72,5.03-11.58,7.54v.86c4.07-2.78,8.14-5.55,12.21-8.32.13-.08.28-.12.63-.27.03.64.07,1.09.06,1.55-.08,9.19-.17,18.39-.23,27.59,0,.96-.18,1.61-.97,2.15-3.9,2.63-7.79,5.29-11.68,7.94v.99c3.93-2.55,7.85-5.11,11.76-7.7,1.01-.67,1.76-.67,2.77.01,6.78,4.49,13.61,8.89,20.41,13.33.39.25.75.55,1.28.94-.38.31-.63.56-.91.74-7.07,4.6-14.16,9.19-21.22,13.81-.71.47-1.25.47-1.96,0-4.03-2.64-8.08-5.27-12.12-7.9v.93c4.2,2.86,8.36,5.7,12.55,8.56.09,10.12.18,20.25.28,30.81-4.34-2.96-8.59-5.86-12.79-8.73v1.01c3.78,2.46,7.57,4.92,11.35,7.39.3.2.57.45,1.1.86-.63.42-1.02.68-1.41.93-3.67,2.39-7.35,4.78-11.02,7.17v.97c3.66-2.49,7.31-4.99,10.97-7.49.48-.33.96-.64,1.7-1.13.04.84.09,1.34.08,1.85-.07,9.08-.18,18.17-.21,27.25,0,1.27-.36,2-1.32,2.64-3.74,2.52-7.46,5.06-11.19,7.6v.78c3.94-2.56,7.89-5.12,11.83-7.69.72-.47,1.3-.61,2.09-.09,7.06,4.64,14.14,9.22,21.21,13.83.25.16.48.38.87.69-.46.36-.8.67-1.17.92-6.94,4.52-13.89,9.02-20.83,13.54-.72.47-1.3.62-2.09.1-3.96-2.61-7.93-5.19-11.89-7.78v.94c3.79,2.59,7.58,5.18,11.38,7.75.74.51,1.04,1.07,1.04,2.08.05,9.26.15,18.52.23,27.78,0,.45-.05.89-.09,1.55-.58-.34-1.02-.57-1.44-.86-3.69-2.52-7.39-5.03-11.08-7.55v1c3.64,2.37,7.27,4.73,10.91,7.1.39.26.75.55,1.28.94-.37.31-.62.57-.9.75-3.75,2.44-7.51,4.89-11.27,7.33v.83c3.65-2.49,7.29-4.99,10.93-7.48.43-.29.86-.57,1.45-.97.07.67.16,1.1.16,1.54-.07,9.27-.17,18.53-.23,27.79,0,.95-.16,1.62-.96,2.16-3.78,2.55-7.55,5.12-11.32,7.69v.9c3.89-2.53,7.77-5.05,11.65-7.59.74-.48,1.32-.57,2.1-.06,7.06,4.64,14.15,9.23,21.23,13.85.26.16.49.38.93.73-.54.4-.86.68-1.21.9-6.77,4.41-13.55,8.78-20.3,13.25-1.14.76-2,.84-3.18.05-3.72-2.48-7.46-4.92-11.2-7.35v.96c4.07,2.78,8.11,5.53,12.18,8.31.09,10.1.19,20.22.28,30.37-.74-.16-6.62-3.95-12.42-7.87v.83c3.71,2.41,7.41,4.83,11.12,7.24.26.16.48.38.85.68-.34.29-.55.51-.79.67-3.72,2.43-7.44,4.84-11.16,7.25v1.01c3.63-2.46,7.26-4.93,10.89-7.39.39-.27.78-.53,1.31-.88.08.53.19.9.19,1.27-.06,7.42-.12,14.84-.18,22.26h.87c-.07-7.78-.14-15.63-.21-23.7,7.83,5.34,15.37,10.49,22.98,15.68.02,2.67.05,5.33.07,8h.86c.02-2.19.04-4.37.05-6.56,0-1.04.24-1.71,1.06-2.27,6.93-4.69,13.82-9.43,20.73-14.15.3-.2.62-.36,1.05-.61.08.39.22.7.21,1.01-.06,7.52-.13,15.03-.18,22.54h.87c-.07-7.79-.14-15.65-.22-23.76,7.87,5.37,15.39,10.5,23.04,15.72.02,2.67.05,5.34.07,8.01h.86c.02-2.23.04-4.47.06-6.7,0-.81.13-1.42.82-1.89,7.19-4.87,14.35-9.77,21.53-14.65.13-.09.28-.11.64-.25.03.71.07,1.22.06,1.74-.06,7.24-.13,14.49-.18,21.73h.87c-.07-7.8-.14-15.6-.21-23.58.68.41,1.12.65,1.54.94,6.74,4.6,13.46,9.21,20.22,13.77.89.61,1.25,1.27,1.26,2.48,0,2.12.03,4.24.04,6.36h.84c.02-2.19.04-4.38.06-6.56,0-.96.18-1.61.97-2.14,7.05-4.77,14.08-9.58,21.11-14.39.22-.15.45-.25.85-.47.04.61.11,1.1.1,1.59-.06,7.31-.13,14.63-.19,21.94h.87c-.05-7.38-.12-14.75-.19-22.13,0-.39.05-.79.09-1.46.63.38,1.03.61,1.42.88,6.78,4.62,13.55,9.26,20.34,13.86.82.56,1.22,1.13,1.22,2.33,0,2.17.03,4.34.04,6.5h.85c.02-2.17.04-4.34.05-6.51,0-.97.19-1.61.98-2.14,7.05-4.76,14.08-9.58,21.12-14.37.22-.15.46-.25.89-.48.03.71.07,1.17.06,1.62-.06,7.28-.13,14.57-.18,21.85h.87c-.07-7.79-.14-15.61-.21-23.68,7.85,5.36,15.36,10.48,22.98,15.68.02,2.65.05,5.31.07,7.97h.86c.02-2.15.04-4.3.04-6.45.01-1.12.26-1.81,1.14-2.4,6.88-4.65,13.74-9.36,20.6-14.05.34-.23.7-.4,1.26-.71.03.78.06,1.24.06,1.7-.07,7.3-.14,14.59-.18,21.88h.87c-.07-7.82-.14-15.65-.21-23.74,7.9,5.39,15.45,10.55,23.04,15.73.02,2.66.05,5.32.07,7.98h.86c.02-2.19.04-4.38.05-6.58,0-.98.24-1.6,1.01-2.12,6.96-4.71,13.9-9.47,20.86-14.21.29-.2.61-.35,1.07-.61.05.67.11,1.16.11,1.66-.06,7.27-.13,14.55-.18,21.82h.85c-.06-7.14-.11-14.28-.17-21.41,0-.62.02-1.25.05-2.18ZM315.82,265.71c0,.97-.2,1.61-.98,2.14-7.01,4.74-13.99,9.53-20.98,14.3-.26.17-.54.31-.92.53-.06-.46-.17-.84-.16-1.22.08-9.37.17-18.75.23-28.12,0-.83.17-1.4.85-1.86,7.18-4.86,14.34-9.76,21.51-14.65.13-.08.28-.12.62-.26.03.66.07,1.11.06,1.57-.08,9.2-.17,18.39-.23,27.59ZM78.53,140.69c-.6-.36-1.04-.6-1.46-.89-6.74-4.59-13.46-9.22-20.22-13.76-.96-.64-1.31-1.34-1.32-2.62-.03-9.03-.14-18.07-.22-27.1,0-.56.04-1.13.07-1.91.6.36,1.04.6,1.46.89,6.74,4.6,13.46,9.22,20.22,13.77.96.64,1.31,1.34,1.31,2.62.03,9.04.14,18.07.22,27.1,0,.57-.03,1.13-.06,1.91ZM78.53,143.27c-.07,9.31-.16,18.63-.23,27.94,0,.82-.15,1.42-.83,1.88-7.18,4.87-14.34,9.77-21.51,14.66-.13.09-.28.13-.64.29-.03-.64-.08-1.09-.07-1.54.08-9.2.17-18.4.23-27.59,0-.95.15-1.62.95-2.16,7.05-4.76,14.08-9.58,21.11-14.38.22-.15.45-.26.83-.48.06.53.15.96.14,1.38ZM56.04,126.74c7.06,4.65,14.15,9.24,21.23,13.85.26.17.5.39.88.68-.38.34-.66.65-.99.86-6.94,4.52-13.9,9.03-20.84,13.58-.83.54-1.48.66-2.37.07-6.97-4.59-13.98-9.12-20.96-13.68-.3-.19-.58-.44-1.14-.87.66-.44,1.09-.73,1.52-1.01,6.82-4.43,13.64-8.85,20.44-13.31.75-.5,1.37-.75,2.23-.18ZM56.22,221.76c6.83,4.51,13.71,8.95,20.56,13.41.39.25.75.55,1.27.94-.42.35-.71.65-1.04.86-6.95,4.53-13.9,9.03-20.83,13.59-.85.55-1.49.62-2.37.04-6.92-4.57-13.88-9.06-20.83-13.59-.34-.22-.66-.5-1.26-.95.68-.46,1.11-.74,1.54-1.03,6.77-4.4,13.56-8.77,20.31-13.21.94-.61,1.66-.7,2.64-.05ZM55.45,253.81c0-.94.14-1.62.94-2.16,7.06-4.77,14.09-9.59,21.13-14.39.21-.15.45-.25.82-.45.06.55.15.98.15,1.41-.07,9.26-.18,18.53-.22,27.79,0,1.17-.37,1.78-1.22,2.35-6.93,4.68-13.83,9.42-20.74,14.12-.26.18-.54.3-1.03.56-.03-.71-.08-1.16-.07-1.62.08-9.2.17-18.41.23-27.61ZM55.52,219.85c-.09-10.04-.18-20.15-.27-30.65,7.82,5.33,15.35,10.47,22.98,15.67.09,10.13.18,20.25.28,30.4-1.18-.29-20.5-13.28-22.98-15.42ZM77.93,203.37c-7.2-4.72-14.4-9.4-21.61-14.1-.17-.11-.31-.27-.68-.61.62-.42,1.05-.71,1.49-1,6.76-4.4,13.54-8.78,20.28-13.23,1.01-.67,1.75-.68,2.77,0,6.78,4.49,13.6,8.89,20.41,13.33.39.25.76.55,1.29.94-.37.32-.62.57-.9.75-7.08,4.6-14.15,9.19-21.23,13.81-.62.41-1.15.56-1.83.11ZM126.03,140.68c-7.79-5.25-15.31-10.44-22.92-15.61-.09-10.16-.18-20.28-.27-30.75.77.5,1.22.77,1.65,1.07,6.65,4.54,13.29,9.1,19.96,13.59.98.66,1.41,1.35,1.42,2.73.01,8.91.13,17.83.2,26.75,0,.63-.02,1.25-.04,2.24ZM126.08,143.61c-.07,9.14-.17,18.28-.23,27.42,0,.94-.13,1.62-.94,2.17-7.09,4.79-14.16,9.64-21.24,14.47-.17.12-.36.2-.67.37-.07-.43-.2-.79-.19-1.15.07-9.43.17-18.86.23-28.29,0-.88.3-1.38.94-1.82,7.04-4.78,14.08-9.59,21.11-14.38.25-.17.52-.27.92-.48.03.67.08,1.18.07,1.69ZM103.82,126.84c6.83,4.51,13.7,8.94,20.55,13.4.39.25.75.55,1.28.94-.47.37-.81.68-1.18.92-6.94,4.52-13.89,9.02-20.83,13.55-.72.47-1.3.63-2.09.11-7.06-4.64-14.14-9.23-21.21-13.84-.26-.16-.49-.38-.97-.77.62-.41,1.01-.67,1.4-.93,6.86-4.46,13.72-8.89,20.56-13.39.9-.59,1.58-.6,2.5,0ZM102.14,123.65c0,1.17-.37,1.78-1.21,2.36-6.93,4.68-13.83,9.41-20.74,14.12-.25.17-.54.3-1.03.56-.03-.7-.08-1.16-.07-1.61.08-9.2.17-18.41.22-27.61,0-1.05.27-1.7,1.08-2.25,6.92-4.68,13.83-9.42,20.73-14.13.3-.2.62-.37,1.12-.66.05.63.12,1.12.12,1.61-.08,9.21-.18,18.41-.22,27.61ZM79.13,141.81c.67.43,1.12.7,1.55,1,6.69,4.56,13.37,9.15,20.08,13.67.95.64,1.33,1.32,1.33,2.61.03,9.03.14,18.05.21,27.08,0,.56-.03,1.13-.06,1.9-.51-.27-.87-.43-1.2-.66-6.91-4.71-13.81-9.43-20.72-14.13-.65-.44-1.07-.87-1.07-1.88-.05-9.44-.15-18.88-.23-28.31,0-.33.05-.66.11-1.27ZM102.26,191.02c-.08,9.09-.18,18.17-.22,27.26,0,1.17-.26,1.91-1.2,2.54-6.89,4.63-13.75,9.34-20.61,14.02-.3.2-.62.37-1.06.63-.07-.48-.18-.85-.18-1.22.07-9.38.17-18.76.23-28.14,0-.91.22-1.5.94-1.99,7.05-4.79,14.08-9.61,21.12-14.41.21-.15.45-.24.91-.49.03.78.07,1.29.07,1.8ZM79.05,236.78c3.97,2.47,7.68,5.17,11.46,7.71,3.81,2.57,7.6,5.19,11.43,7.81.09,10.16.18,20.24.28,30.56-.51-.24-.87-.37-1.19-.58-6.96-4.74-13.91-9.5-20.87-14.22-.64-.44-.94-.9-.94-1.79-.06-9.5-.16-19-.24-28.5,0-.23.04-.46.08-.98ZM101.37,250.61c-6.93-4.57-13.88-9.07-20.83-13.59-.34-.22-.66-.5-1.23-.93,1.28-.86,2.33-1.56,3.38-2.25,6.11-3.98,12.23-7.92,18.32-11.93,1.04-.68,1.82-.78,2.91-.06,6.74,4.47,13.52,8.85,20.29,13.26.43.28.85.59,1.4.98-.37.34-.61.63-.9.81-6.99,4.55-13.99,9.09-20.97,13.67-.85.55-1.49.61-2.37.03ZM102.93,253.55c0-.83.16-1.41.83-1.88,7.18-4.86,14.34-9.76,21.51-14.65.13-.09.28-.13.63-.27.03.65.07,1.1.07,1.55-.08,9.2-.17,18.39-.23,27.59,0,.96-.18,1.61-.97,2.14-7.05,4.77-14.08,9.58-21.11,14.39-.22.15-.45.26-.79.44-.07-.45-.17-.83-.17-1.2.07-9.37.17-18.75.23-28.12ZM125.93,235.61c-7.73-5.27-15.28-10.42-22.92-15.64-.09-10.15-.18-20.28-.28-30.61.43.18.76.25,1.04.43,7.05,4.8,14.09,9.61,21.14,14.42.57.38.89.8.89,1.64.06,9.62.15,19.24.23,28.86,0,.17-.04.34-.1.91ZM125.14,203.08c-6.93-4.57-13.88-9.07-20.83-13.59-.34-.22-.66-.49-1.26-.95.68-.45,1.11-.75,1.54-1.03,6.78-4.4,13.56-8.78,20.31-13.22.94-.62,1.65-.7,2.63-.05,6.83,4.51,13.71,8.95,20.57,13.42.39.25.76.55,1.28.93-.42.36-.71.65-1.03.87-6.95,4.53-13.9,9.03-20.83,13.59-.85.56-1.49.62-2.37.04ZM172.72,140.12c-7.09-4.83-14.16-9.67-21.25-14.49-.58-.39-.88-.83-.88-1.65-.06-9.61-.15-19.22-.23-28.83,0-.17.05-.34.11-.79.54.32.95.53,1.33.79,6.82,4.65,13.63,9.32,20.47,13.95.78.53,1.14,1.09,1.14,2.19.04,9.26.15,18.52.23,27.78,0,.41-.03.81-.05,1.37-.34-.11-.63-.15-.86-.31ZM173.57,143.61c-.08,9.03-.18,18.05-.22,27.08,0,1.25-.3,2.01-1.28,2.67-6.8,4.57-13.57,9.22-20.35,13.84-.38.26-.78.46-1.35.8-.03-.76-.08-1.32-.08-1.88.08-9.03.18-18.06.22-27.09,0-1.25.32-2,1.28-2.65,6.75-4.56,13.48-9.18,20.21-13.78.42-.28.84-.56,1.48-.98.04.88.08,1.44.08,2ZM151.44,126.89c6.83,4.51,13.7,8.94,20.55,13.41.38.25.73.56,1.29.99-.6.4-1.02.68-1.44.96-6.86,4.45-13.72,8.88-20.56,13.38-.86.56-1.5.57-2.36,0-6.88-4.53-13.79-9-20.68-13.49-.38-.25-.73-.56-1.22-.94.51-.38.87-.68,1.25-.93,6.85-4.46,13.71-8.9,20.55-13.4.96-.63,1.68-.62,2.63,0ZM149.62,123.69c0,.93-.25,1.5-.95,1.98-7.05,4.77-14.07,9.59-21.11,14.39-.22.15-.45.26-.83.48-.06-.53-.15-.95-.14-1.38.07-9.31.17-18.63.23-27.94,0-.82.13-1.42.82-1.88,7.22-4.89,14.43-9.82,21.64-14.73.09-.06.19-.07.51-.18.03.54.07.93.07,1.32-.08,9.31-.17,18.63-.23,27.94ZM149.54,157.36c.09,10.11.19,20.24.28,30.39-1.15-.26-20.29-13.11-22.98-15.4-.09-10.04-.18-20.15-.27-30.67,7.86,5.37,15.37,10.5,22.98,15.69ZM149.81,190.52c-.07,9.38-.17,18.76-.22,28.14,0,1.13-.45,1.66-1.21,2.17-6.18,4.17-12.35,8.38-18.52,12.57-1,.68-2.01,1.34-3.27,2.18-.02-.88-.05-1.45-.04-2.02.08-9.09.17-18.17.22-27.26,0-1.05.26-1.7,1.08-2.25,6.93-4.68,13.83-9.41,20.74-14.12.3-.21.62-.37,1.06-.62.07.47.19.85.18,1.22ZM126.57,236.64c.67.43,1.12.7,1.55,1,6.69,4.56,13.37,9.15,20.08,13.67.94.63,1.34,1.31,1.34,2.61.03,9.03.13,18.05.21,27.08,0,.57-.03,1.13-.05,1.9-.5-.27-.87-.43-1.19-.65-6.91-4.71-13.81-9.43-20.73-14.13-.65-.44-1.07-.87-1.08-1.88-.05-9.44-.15-18.87-.23-28.31,0-.33.05-.67.1-1.28ZM149.03,250.61c-7.1-4.66-14.23-9.28-21.35-13.92-.21-.14-.4-.32-.81-.65.5-.37.82-.65,1.16-.87,6.94-4.52,13.89-9.02,20.82-13.56.78-.51,1.4-.6,2.23-.05,7.01,4.61,14.05,9.17,21.08,13.74.26.17.5.38.89.68-.38.33-.66.63-.98.84-7.03,4.58-14.07,9.13-21.09,13.72-.69.45-1.24.54-1.96.06ZM150.47,253.73c0-1.07.3-1.7,1.1-2.24,6.96-4.71,13.91-9.46,20.86-14.19.26-.18.54-.32.93-.53.07.45.17.83.17,1.2-.08,9.38-.17,18.74-.23,28.12,0,.83-.17,1.41-.84,1.87-7.18,4.86-14.34,9.76-21.51,14.65-.13.09-.28.13-.62.27-.03-.65-.08-1.1-.07-1.56.08-9.2.17-18.39.22-27.59ZM172.09,234.59c-6.82-4.65-13.64-9.32-20.48-13.96-.73-.49-1.08-1.01-1.08-2.05-.05-9.33-.15-18.65-.23-27.98,0-.35.02-.7.03-1,.09-.07.13-.1.18-.13.04-.02.1-.06.14-.04.28.15.56.28.82.46,7.26,4.95,14.51,9.91,21.8,14.88.09,10.16.18,20.23.28,30.67-.67-.39-1.07-.59-1.45-.85ZM172.57,203.02c-6.88-4.53-13.8-9.01-20.7-13.49-.35-.23-.67-.5-1.28-.95.67-.45,1.1-.74,1.53-1.02,6.82-4.43,13.64-8.85,20.44-13.3.75-.49,1.37-.74,2.23-.17,7.06,4.65,14.15,9.24,21.22,13.85.26.17.5.38.88.68-.38.34-.67.65-1,.87-6.94,4.52-13.9,9.02-20.83,13.58-.92.61-1.61.56-2.51-.03ZM198.16,124.97c-.09-10.11-.19-20.23-.28-30.37,1.14.23,19.93,12.83,22.98,15.38.09,10.03.18,20.14.27,30.68-7.85-5.36-15.36-10.49-22.97-15.69ZM221.12,143.59c-.08,9.03-.18,18.06-.21,27.09,0,1.35-.38,2.1-1.39,2.78-6.85,4.6-13.66,9.28-20.48,13.93-.29.2-.62.34-1.08.59-.05-.58-.12-1.02-.11-1.45.08-9.27.17-18.53.23-27.79,0-.97.21-1.61.98-2.14,6.97-4.71,13.92-9.47,20.87-14.21.29-.2.61-.36,1.15-.66.02.83.05,1.35.04,1.87ZM198.85,126.73c6.83,4.52,13.71,8.95,20.56,13.41.39.26.76.55,1.28.93-.42.35-.71.65-1.03.87-6.94,4.53-13.9,9.03-20.84,13.58-.84.55-1.49.62-2.37.04-6.92-4.56-13.88-9.07-20.83-13.59-.34-.22-.66-.5-1.27-.95.69-.46,1.11-.75,1.54-1.03,6.77-4.4,13.56-8.77,20.31-13.21.94-.61,1.65-.7,2.63-.05ZM197.17,123.56c0,.96-.18,1.61-.98,2.14-7.01,4.74-13.99,9.53-20.98,14.3-.26.18-.54.32-.98.57-.04-.61-.11-1.1-.11-1.6.08-9.2.17-18.39.23-27.59,0-.96.17-1.62.96-2.15,7.06-4.76,14.09-9.58,21.12-14.37.22-.15.45-.25.9-.5.03.7.07,1.16.06,1.61-.08,9.2-.17,18.39-.23,27.59ZM174.14,141.78c.48.27.84.44,1.17.66,6.91,4.72,13.82,9.45,20.75,14.14.74.5,1.05,1.06,1.05,2.07.05,9.32.15,18.65.23,27.98,0,.39-.04.78-.08,1.35-.43-.23-.75-.38-1.04-.57-6.95-4.75-13.9-9.51-20.87-14.23-.74-.5-1.06-1.05-1.06-2.07-.05-9.33-.15-18.65-.24-27.97,0-.39.04-.78.08-1.36ZM197.28,190.87c-.07,9.14-.17,18.28-.22,27.42,0,1.03-.2,1.71-1.04,2.28-6.92,4.67-13.81,9.41-20.72,14.12-.33.23-.7.4-1.22.71-.03-.73-.07-1.29-.07-1.86.07-9.02.18-18.04.21-27.06,0-1.27.35-1.99,1.3-2.63,6.75-4.55,13.47-9.17,20.2-13.76.42-.29.85-.57,1.46-.98.04.76.1,1.26.09,1.77ZM196.98,252.2c.09,10.21.18,20.29.28,30.29-.14.09-.18.13-.23.14-.04.02-.11.04-.14.03-.27-.15-.56-.29-.82-.46-7.25-4.95-14.5-9.9-21.8-14.88-.09-10.17-.18-20.28-.28-30.8,7.81,5.33,15.34,10.47,22.98,15.68ZM196.57,250.63c-7.1-4.67-14.23-9.29-21.34-13.92-.21-.14-.4-.32-.74-.6.38-.33.67-.62.99-.83,6.98-4.55,13.98-9.09,20.95-13.65.71-.46,1.3-.65,2.1-.12,7.1,4.68,14.23,9.29,21.34,13.92.21.14.4.33.86.7-.59.4-.98.66-1.36.91-6.9,4.48-13.81,8.95-20.7,13.45-.71.46-1.29.67-2.09.14ZM197.97,253.63c0-1.04.23-1.7,1.06-2.27,6.93-4.69,13.82-9.42,20.73-14.14.3-.21.62-.37,1.05-.62.09.39.22.7.21,1.02-.07,9.5-.17,19-.22,28.5,0,1.09-.51,1.54-1.19,2-5.52,3.74-11.04,7.5-16.56,11.24-1.66,1.13-3.33,2.22-5.21,3.48-.04-.68-.09-1.14-.09-1.59.08-9.2.17-18.41.23-27.62ZM220.04,234.88c-7.04-4.79-14.08-9.61-21.12-14.4-.57-.39-.89-.81-.9-1.64-.06-9.62-.15-19.23-.23-28.84,0-.17.04-.34.1-.8.54.32.95.52,1.32.77,6.82,4.65,13.63,9.32,20.47,13.94.79.53,1.15,1.09,1.16,2.19.05,9.26.15,18.52.23,27.78,0,.41-.02.81-.04,1.4-.39-.16-.72-.22-.99-.41ZM220.15,202.97c-6.92-4.56-13.87-9.06-20.81-13.58-.34-.22-.66-.49-1.12-.84.45-.35.75-.63,1.08-.85,6.98-4.55,13.98-9.08,20.96-13.64.74-.48,1.31-.57,2.09-.05,7.01,4.61,14.05,9.17,21.08,13.74.3.19.57.44,1.07.83-.68.46-1.12.75-1.56,1.04-6.81,4.43-13.63,8.83-20.43,13.29-.84.55-1.48.64-2.36.06ZM245.64,124.79c-.09-10.05-.18-20.18-.28-30.74,7.88,5.38,15.44,10.54,23.04,15.72.09,10.2.18,20.33.28,30.5-1.21-.35-20.61-13.41-23.03-15.48ZM268.6,143.07c-.07,9.31-.16,18.63-.23,27.94,0,.82-.14,1.42-.82,1.89-7.18,4.86-14.34,9.77-21.5,14.65-.13.09-.28.13-.64.29-.03-.63-.08-1.08-.07-1.54.08-9.25.17-18.51.23-27.76,0-.92.24-1.5.95-1.98,7.09-4.8,14.16-9.65,21.24-14.47.17-.12.37-.2.71-.38.06.51.15.93.14,1.36ZM246.08,126.53c7.11,4.67,14.24,9.29,21.36,13.93.22.15.42.32.78.6-.37.33-.64.65-.96.85-6.99,4.56-13.99,9.1-20.97,13.66-.71.47-1.31.65-2.1.12-7.06-4.64-14.15-9.23-21.23-13.84-.29-.19-.54-.46-.93-.79.5-.38.86-.68,1.24-.92,6.9-4.49,13.82-8.98,20.71-13.48.71-.46,1.3-.66,2.1-.14ZM244.67,123.74c0,1.08-.48,1.54-1.18,2.01-5.52,3.74-11.03,7.49-16.55,11.24-1.66,1.12-3.34,2.23-5.26,3.51-.02-.81-.07-1.37-.06-1.94.08-9.02.18-18.05.22-27.08,0-1.27.36-2,1.31-2.64,6.76-4.55,13.47-9.18,20.21-13.78.39-.27.78-.52,1.32-.88.09.51.22.87.22,1.24-.07,9.44-.17,18.88-.22,28.32ZM221.69,141.65c7.76,5.3,15.31,10.45,22.88,15.62.09,10.16.18,20.24.28,30.57-.51-.24-.87-.36-1.19-.58-6.96-4.74-13.91-9.5-20.88-14.22-.64-.44-.94-.9-.94-1.79-.06-9.5-.16-19-.24-28.5,0-.23.03-.46.09-1.09ZM244.83,191.05c-.07,9.02-.18,18.04-.21,27.06,0,1.27-.34,1.99-1.3,2.64-6.71,4.52-13.38,9.11-20.06,13.67-.47.32-.94.63-1.59,1.06-.05-.75-.11-1.26-.1-1.76.07-9.14.17-18.28.22-27.42,0-1.02.18-1.72,1.02-2.3,7.01-4.73,14-9.51,20.99-14.28.25-.17.53-.29.99-.54.02.81.04,1.33.04,1.85ZM244.53,252.26c.09,10.04.19,20.18.28,30.33-1.18-.27-19.71-12.69-23.04-15.42-.09-10.05-.18-20.18-.28-30.34,1.19.27,19.91,12.83,23.03,15.43ZM243.72,250.29c-6.79-4.48-13.62-8.89-20.43-13.32-.43-.28-.83-.6-1.41-1.02.53-.41.87-.72,1.25-.96,6.9-4.49,13.82-8.96,20.72-13.47.77-.5,1.39-.64,2.23-.09,7.02,4.61,14.06,9.17,21.09,13.76.3.19.56.45,1.05.86-.59.39-.94.63-1.29.85-6.86,4.47-13.73,8.91-20.57,13.41-.96.63-1.69.61-2.64-.02ZM245.51,253.62c0-1.05.26-1.7,1.08-2.25,6.93-4.68,13.83-9.41,20.74-14.13.3-.2.62-.37,1.08-.64.06.55.16.99.15,1.42-.07,9.26-.17,18.53-.23,27.79,0,1.04-.25,1.71-1.07,2.27-7.01,4.74-14,9.53-21,14.3-.21.14-.45.23-.9.45-.03-.69-.08-1.15-.07-1.6.07-9.21.17-18.41.22-27.61ZM245.6,219.81c-.09-10.12-.18-20.24-.28-30.38,1.14.23,19.96,12.85,22.98,15.39.09,10.03.18,20.15.28,30.67-7.81-5.33-15.34-10.47-22.98-15.68ZM267.76,203.02c-6.97-4.59-13.96-9.11-20.95-13.66-.3-.2-.58-.43-1.02-.75.35-.31.59-.58.86-.76,7.07-4.61,14.16-9.2,21.22-13.83.7-.46,1.25-.5,1.97-.03,7.1,4.66,14.23,9.28,21.35,13.92.21.14.4.33.87.7-.59.39-.97.65-1.36.91-6.9,4.48-13.81,8.95-20.69,13.46-.79.51-1.4.59-2.23.05ZM292.21,123.28c0,1.17-.27,1.91-1.2,2.54-6.93,4.66-13.83,9.41-20.74,14.12-.26.17-.54.3-.94.52-.07-.47-.17-.84-.17-1.21.08-9.38.17-18.76.23-28.15,0-.91.23-1.5.94-1.98,7.05-4.78,14.09-9.59,21.13-14.4.21-.14.45-.25.91-.5.03.78.07,1.29.07,1.8-.08,9.09-.17,18.18-.22,27.26ZM293.65,126.49c7.01,4.6,14.05,9.16,21.08,13.74.3.2.57.44,1.08.83-.68.45-1.11.75-1.55,1.04-6.81,4.42-13.63,8.83-20.43,13.29-.83.54-1.47.66-2.36.07-6.92-4.56-13.87-9.06-20.81-13.58-.34-.22-.66-.49-1.13-.84.44-.35.74-.63,1.07-.85,6.99-4.55,13.98-9.08,20.95-13.64.73-.48,1.32-.58,2.1-.06ZM269.19,141.61c.67.43,1.11.7,1.55,1,6.69,4.56,13.37,9.15,20.08,13.66.95.64,1.34,1.32,1.34,2.6.04,9.03.14,18.05.21,27.08,0,.57-.03,1.13-.05,1.91-.5-.26-.86-.42-1.19-.64-6.91-4.71-13.81-9.44-20.73-14.13-.73-.49-1.07-1.02-1.08-2.05-.05-9.32-.15-18.64-.23-27.96,0-.39.04-.78.09-1.47ZM292.33,190.52c-.07,9.27-.17,18.53-.23,27.79,0,.95-.17,1.62-.96,2.16-7.06,4.77-14.09,9.59-21.14,14.38-.21.15-.44.24-.89.47-.02-.79-.05-1.31-.05-1.83.08-9.08.18-18.17.23-27.26,0-1.1.21-1.81,1.1-2.42,6.88-4.64,13.74-9.36,20.6-14.04.34-.23.7-.41,1.2-.7.06.59.15,1.02.15,1.46ZM292.02,252.1c.09,10.17.18,20.28.28,30.8-7.85-5.36-15.39-10.5-22.98-15.68-.09-10.19-.18-20.3-.28-30.81,7.85,5.35,15.39,10.5,22.98,15.68ZM291.21,250.28c-6.79-4.49-13.62-8.9-20.43-13.34-.4-.26-.77-.54-1.28-.91.34-.32.56-.61.84-.79,7.08-4.62,14.16-9.21,21.24-13.83.62-.41,1.15-.55,1.83-.11,7.24,4.75,14.5,9.48,21.75,14.21.13.08.24.22.52.48-.42.34-.69.59-.98.79-6.9,4.49-13.82,8.96-20.7,13.5-1.01.67-1.76.67-2.77,0ZM293.84,189.6c7.05,4.8,14.09,9.61,21.13,14.41.57.39.89.8.9,1.64.06,9.62.15,19.24.23,28.86,0,.17-.03.34-.1.91-7.73-5.27-15.28-10.42-22.92-15.64-.09-10.14-.19-20.28-.28-30.61.44.18.77.25,1.04.43ZM316.15,143.69c-.08,8.96-.18,17.92-.21,26.89,0,1.25-.32,2-1.28,2.65-6.71,4.52-13.38,9.11-20.06,13.68-.47.32-.95.63-1.58,1.05-.06-.66-.14-1.1-.13-1.54.07-9.25.17-18.51.23-27.77,0-.98.23-1.6,1-2.12,7.01-4.74,13.99-9.52,20.99-14.28.26-.18.54-.3,1.02-.56.01.86.04,1.43.03,2.01ZM315.89,109.75c.09,10.17.18,20.29.27,30.66-.65-.37-1.06-.57-1.43-.83-6.83-4.65-13.64-9.32-20.48-13.96-.72-.48-1.1-.99-1.1-2.04-.05-9.32-.15-18.65-.23-27.97,0-.39.05-.78.1-1.47,7.73,5.27,15.27,10.42,22.87,15.6ZM316.2,47.92c-.07,9.44-.17,18.88-.22,28.32,0,1.08-.5,1.54-1.19,2-5.52,3.73-11.04,7.49-16.55,11.24-1.66,1.13-3.34,2.22-5.21,3.47-.05-.61-.11-1-.11-1.39.08-9.32.18-18.64.23-27.97,0-1.01.3-1.59,1.06-2.09,6.97-4.72,13.91-9.49,20.86-14.24.26-.18.54-.31.93-.54.08.45.21.82.2,1.19ZM270.69,45.39c6.98-4.55,13.98-9.09,20.95-13.65.72-.47,1.3-.62,2.1-.09,7.05,4.64,14.14,9.23,21.21,13.84.26.17.49.39.98.77-.69.46-1.17.79-1.66,1.1-6.77,4.39-13.54,8.77-20.29,13.21-.9.59-1.58.62-2.5.01-6.83-4.51-13.69-8.94-20.55-13.4-.38-.25-.75-.55-1.28-.93.42-.34.72-.63,1.04-.84ZM270.41,47.48c6.91,4.71,13.81,9.43,20.72,14.12.73.5,1.06,1.04,1.06,2.06.05,9.26.15,18.52.23,27.78,0,.45-.05.89-.09,1.62-7.72-5.27-15.26-10.42-22.86-15.6-.09-10.16-.18-20.27-.28-30.72.61.37.92.54,1.22.75ZM270.04,79.13c6.93,4.57,13.88,9.06,20.83,13.59.34.23.66.5,1.13.85-.41.34-.69.64-1.03.86-6.94,4.53-13.9,9.03-20.83,13.59-.85.56-1.49.62-2.37.03-6.93-4.57-13.89-9.06-20.83-13.59-.34-.22-.66-.5-1.26-.95.64-.43,1.02-.69,1.41-.94,6.86-4.45,13.73-8.89,20.58-13.39.84-.55,1.48-.63,2.37-.05ZM268.71,48.67c-.08,9.08-.17,18.16-.23,27.24,0,1.01-.15,1.72-1,2.3-6.97,4.7-13.9,9.47-20.85,14.2-.3.2-.62.36-1.06.61-.05-.56-.13-1-.13-1.44.08-9.26.17-18.51.23-27.77,0-.98.22-1.6,1-2.13,7.01-4.74,13.99-9.52,20.99-14.28.26-.18.54-.3,1.01-.56.02.79.06,1.3.05,1.82ZM223.48,45.14c6.81-4.43,13.63-8.83,20.42-13.31.96-.63,1.68-.6,2.63.02,6.83,4.51,13.7,8.94,20.55,13.4.38.25.73.56,1.21.94-.52.38-.88.68-1.26.93-6.9,4.49-13.81,8.95-20.69,13.47-.87.57-1.5.55-2.36-.01-6.88-4.53-13.79-9-20.68-13.49-.38-.25-.73-.56-1.27-.98.61-.41,1.03-.7,1.46-.97ZM221.71,46.96c.37.15.71.21.98.39,7.04,4.8,14.08,9.61,21.12,14.4.57.39.9.81.9,1.64.06,9.61.15,19.22.23,28.84,0,.17-.04.34-.1.81-.54-.32-.94-.52-1.32-.78-6.82-4.65-13.64-9.31-20.47-13.95-.68-.47-1.16-.89-1.17-1.99-.04-9.43-.15-18.87-.23-28.31,0-.29.03-.58.06-1.04ZM222.83,79.42c6.78,4.49,13.6,8.89,20.41,13.33.39.25.75.55,1.28.94-.38.32-.63.56-.92.75-7.07,4.6-14.16,9.19-21.22,13.81-.63.41-1.15.54-1.83.1-7.2-4.71-14.41-9.4-21.6-14.1-.17-.11-.3-.27-.67-.61.63-.42,1.06-.71,1.5-1,6.76-4.4,13.54-8.78,20.28-13.23,1.02-.67,1.76-.65,2.77.02ZM221.16,48.54c-.07,9.14-.17,18.27-.22,27.41,0,1.04-.23,1.71-1.05,2.26-6.92,4.68-13.81,9.41-20.72,14.12-.33.23-.69.4-1.18.68-.04-.67-.09-1.17-.09-1.68.08-9.08.18-18.16.22-27.24,0-1.28.37-1.99,1.32-2.63,6.71-4.52,13.38-9.1,20.06-13.67.47-.32.94-.62,1.58-1.05.04.78.1,1.29.09,1.79ZM175.65,45.44c6.99-4.56,13.99-9.09,20.97-13.65.67-.44,1.22-.61,1.96-.12,7.15,4.69,14.33,9.35,21.5,14.02.21.13.39.33.75.64-.49.37-.77.62-1.08.82-6.86,4.47-13.73,8.9-20.57,13.41-1.05.69-1.84.72-2.91.01-6.74-4.46-13.53-8.84-20.3-13.25-.43-.28-.84-.6-1.42-1.01.46-.37.76-.66,1.09-.87ZM197.13,62.42c.09,10.13.18,20.24.28,30.41-1.32-.37-19.18-12.35-22.97-15.38-.09-10.02-.18-20.15-.28-30.71,7.85,5.36,15.37,10.48,22.98,15.68ZM174.88,79.15c7.06,4.64,14.14,9.22,21.22,13.83.25.17.48.38.87.69-.46.36-.8.67-1.17.92-6.95,4.51-13.9,9.02-20.83,13.55-.72.47-1.3.62-2.09.1-7.05-4.64-14.14-9.23-21.21-13.83-.26-.16-.49-.38-.97-.77.58-.38.92-.62,1.27-.85,6.94-4.51,13.89-9.01,20.83-13.55.72-.47,1.3-.61,2.09-.09ZM173.68,48.37c-.07,9.26-.17,18.53-.23,27.79,0,.95-.16,1.63-.96,2.16-7.06,4.77-14.09,9.6-21.13,14.39-.21.14-.45.22-.89.44-.03-.7-.07-1.16-.06-1.62.08-9.21.17-18.41.23-27.61,0-.95.17-1.61.96-2.15,7.02-4.74,14.01-9.53,21-14.3.25-.17.53-.3.94-.53.06.57.15,1.01.14,1.44ZM128.41,45.19c6.82-4.43,13.65-8.84,20.45-13.3.89-.59,1.57-.65,2.5-.03,6.88,4.54,13.8,9.01,20.7,13.5.35.23.68.49,1.15.84-.32.31-.54.6-.81.79-7.07,4.61-14.16,9.21-21.23,13.84-.62.41-1.15.55-1.83.11-7.24-4.75-14.5-9.47-21.75-14.2-.13-.08-.23-.22-.6-.58.59-.4,1.01-.68,1.43-.96ZM127.65,47.44c7.05,4.8,14.09,9.62,21.13,14.41.57.39.89.81.89,1.64.06,9.62.15,19.24.23,28.86,0,.17-.04.34-.06.51-1.08-.18-18.99-12.16-22.96-15.37-.09-10.13-.18-20.21-.28-30.49.44.18.76.25,1.04.43ZM127.91,79.58c6.65,4.41,13.35,8.73,20.03,13.09.48.31.95.63,1.59,1.06-.45.39-.74.7-1.06.91-6.9,4.49-13.82,8.97-20.7,13.5-.94.62-1.66.69-2.64.05-6.83-4.51-13.71-8.95-20.56-13.42-.39-.25-.76-.55-1.39-1.02,1.3-.87,2.34-1.57,3.39-2.26,6.11-3.97,12.24-7.9,18.31-11.93,1.12-.75,1.94-.7,3.04.03ZM126.13,48.76c-.07,9.03-.19,18.06-.21,27.09,0,1.37-.42,2.09-1.41,2.76-6.76,4.55-13.48,9.17-20.22,13.75-.38.26-.78.46-1.39.82-.02-.85-.05-1.37-.04-1.89.08-9.03.18-18.05.22-27.09,0-1.24.31-2,1.28-2.66,6.76-4.55,13.47-9.18,20.21-13.78.42-.29.85-.56,1.48-.99.04.88.09,1.44.08,1.99ZM80.61,45.58c6.98-4.55,13.97-9.09,20.95-13.66.72-.47,1.3-.62,2.1-.09,7.05,4.64,14.14,9.23,21.21,13.83.26.17.49.38.98.77-.6.41-.99.67-1.39.93-6.9,4.48-13.81,8.95-20.7,13.46-.72.46-1.29.63-2.09.11-7.06-4.64-14.14-9.23-21.21-13.83-.26-.17-.49-.38-.88-.68.41-.34.71-.62,1.03-.84ZM79.17,46.88c7.76,5.3,15.27,10.42,22.92,15.64.09,10.1.18,20.26.28,30.69-.67-.4-1.11-.64-1.53-.92-6.73-4.59-13.45-9.21-20.2-13.75-.97-.65-1.28-1.37-1.29-2.63-.03-8.96-.14-17.93-.22-26.89,0-.58.02-1.16.04-2.13ZM80.04,79.37c6.88,4.54,13.8,9.01,20.7,13.51.35.22.68.49,1.15.83-.32.31-.54.6-.81.78-7.08,4.62-14.16,9.22-21.24,13.84-.62.41-1.15.55-1.83.11-7.24-4.75-14.5-9.47-21.75-14.2-.13-.09-.23-.22-.6-.58.59-.39,1.01-.68,1.43-.95,6.82-4.43,13.65-8.84,20.45-13.3.89-.59,1.57-.65,2.5-.03ZM78.64,48.75c-.08,9.14-.18,18.27-.23,27.41,0,1.04-.23,1.71-1.06,2.26-6.92,4.68-13.81,9.41-20.72,14.12-.33.23-.69.39-1.18.67-.04-.67-.1-1.18-.09-1.68.08-9.08.18-18.16.21-27.24,0-1.27.37-1.99,1.31-2.63,6.8-4.58,13.56-9.22,20.34-13.83.38-.26.78-.46,1.31-.78.04.68.1,1.19.09,1.7ZM33.07,45.56c6.98-4.55,13.98-9.08,20.96-13.64.72-.47,1.3-.61,2.1-.1,7.05,4.64,14.14,9.23,21.21,13.83.26.17.49.38.97.77-.57.38-.92.62-1.27.84-6.94,4.52-13.89,9.02-20.83,13.55-.72.47-1.3.62-2.09.1-7.06-4.64-14.14-9.23-21.21-13.83-.25-.16-.48-.38-.87-.68.42-.34.71-.62,1.04-.83ZM53.21,92.3c-6.69-4.56-13.37-9.15-20.08-13.67-.95-.63-1.33-1.32-1.33-2.61-.03-9.03-.14-18.05-.21-27.08,0-.56.03-1.13.06-1.9.51.28.87.44,1.2.66,6.91,4.71,13.81,9.43,20.72,14.13.65.44,1.06.87,1.07,1.89.05,9.43.15,18.87.23,28.3,0,.33-.05.67-.1,1.27-.68-.44-1.12-.71-1.56-1.01ZM31.77,111.14c0-.76.15-1.31.78-1.74,7.18-4.88,14.35-9.78,21.52-14.68.13-.09.28-.12.68-.29.02.77.06,1.33.05,1.9-.07,9.03-.18,18.05-.21,27.09,0,1.27-.36,2-1.31,2.64-6.8,4.58-13.57,9.23-20.35,13.85-.35.24-.69.46-1.19.79-.09-.52-.21-.88-.21-1.25.07-9.44.16-18.87.24-28.31ZM53.71,187.53c-7.01-4.77-14-9.56-21-14.32-.56-.38-.93-.75-.94-1.61-.05-9.68-.14-19.35-.22-29.03,0-.11.05-.22.13-.59,3.9,2.43,7.62,5.13,11.4,7.68,3.81,2.57,7.6,5.19,11.42,7.8.09,10.17.18,20.24.27,30.52-.46-.19-.79-.27-1.06-.46ZM31.72,206.4c0-.97.19-1.61.98-2.15,7.05-4.76,14.08-9.58,21.12-14.37.21-.15.45-.25.89-.49.03.71.07,1.17.06,1.62-.08,9.2-.17,18.39-.23,27.59,0,.97-.2,1.6-.99,2.13-7.01,4.74-13.99,9.53-20.98,14.3-.26.18-.54.31-.95.54-.05-.54-.14-.98-.13-1.42.07-9.26.17-18.51.23-27.76ZM31.7,267.49c-.09-10.15-.19-20.29-.28-30.59.39.14.68.17.91.33,7.09,4.83,14.17,9.67,21.27,14.49.57.4.88.82.88,1.65.06,9.62.15,19.24.23,28.86,0,.17-.04.34-.1.89-7.73-5.27-15.28-10.43-22.91-15.64ZM31.39,329.38c.07-9.49.16-18.98.23-28.47,0-.78.21-1.3.82-1.72,7.22-4.9,14.43-9.81,21.64-14.73.09-.06.19-.07.51-.18.03.59.07,1.05.07,1.49-.08,9.26-.17,18.51-.23,27.77,0,.92-.24,1.49-.95,1.98-7.05,4.78-14.07,9.59-21.11,14.39-.22.15-.45.26-.78.45-.08-.37-.21-.68-.2-.99ZM76.64,332.12c-6.86,4.45-13.72,8.89-20.56,13.38-.86.56-1.49.57-2.36,0-6.88-4.53-13.79-9-20.68-13.49-.38-.25-.73-.56-1.22-.93.52-.38.88-.68,1.26-.93,6.85-4.47,13.72-8.9,20.55-13.41.96-.63,1.68-.61,2.64.02,6.83,4.51,13.7,8.95,20.54,13.41.38.25.73.56,1.29.99-.6.4-1.02.69-1.45.96ZM78.39,330.29c-.34-.12-.63-.15-.86-.3-7.09-4.83-14.16-9.67-21.25-14.49-.58-.39-.88-.83-.88-1.65-.06-9.61-.15-19.22-.23-28.84,0-.17.04-.35.11-.79.54.32.95.53,1.33.79,6.82,4.66,13.63,9.33,20.47,13.95.78.53,1.14,1.08,1.15,2.19.04,9.26.14,18.52.23,27.78,0,.41-.03.81-.05,1.36ZM77.68,298.11c-7.06-4.64-14.14-9.23-21.21-13.83-.25-.17-.49-.38-.87-.69.46-.37.8-.68,1.17-.92,6.94-4.52,13.89-9.02,20.82-13.56.72-.47,1.3-.62,2.09-.1,7.06,4.64,14.14,9.23,21.21,13.83.26.17.49.38.98.77-.56.38-.91.62-1.26.84-6.94,4.51-13.89,9.02-20.83,13.54-.71.47-1.3.63-2.1.11ZM78.93,328.84c.08-9.19.17-18.39.23-27.59,0-.96.17-1.62.96-2.16,7.05-4.76,14.08-9.57,21.12-14.37.21-.15.45-.25.79-.44.07.45.17.83.17,1.2-.07,9.37-.17,18.74-.23,28.11,0,.83-.17,1.42-.84,1.88-7.18,4.86-14.34,9.76-21.51,14.65-.13.09-.28.13-.62.28-.03-.65-.07-1.11-.07-1.56ZM124.23,331.97c-6.82,4.44-13.64,8.85-20.43,13.34-1.02.67-1.77.65-2.78-.02-6.79-4.48-13.62-8.89-20.43-13.33-.39-.25-.76-.55-1.28-.92.34-.33.57-.62.85-.8,7.08-4.61,14.17-9.2,21.25-13.82.63-.41,1.16-.53,1.83-.09,7.2,4.72,14.42,9.41,21.63,14.11.17.11.32.27.72.63-.59.39-.97.65-1.36.9ZM102.97,314.84c-.09-10.19-.19-20.29-.28-30.81,7.81,5.33,15.35,10.47,22.98,15.68.09,10.12.19,20.25.28,30.82-7.86-5.37-15.4-10.52-22.98-15.69ZM125.41,298.22c-7.24-4.74-14.49-9.46-21.74-14.18-.12-.08-.22-.22-.56-.56.57-.38,1-.67,1.43-.95,6.76-4.41,13.54-8.79,20.28-13.23.99-.65,1.73-.73,2.78-.04,6.82,4.52,13.69,8.95,20.54,13.41.35.22.68.49,1.14.84-.28.28-.46.53-.69.68-7.16,4.66-14.33,9.31-21.49,13.98-.59.39-1.08.46-1.69.06ZM126.42,328.86c.08-9.26.17-18.53.23-27.79,0-.96.2-1.61.98-2.14,6.97-4.71,13.91-9.48,20.86-14.23.29-.2.61-.35,1.13-.63.04.69.08,1.1.08,1.5-.08,9.26-.18,18.53-.23,27.79,0,1.07-.32,1.69-1.12,2.23-6.93,4.68-13.83,9.41-20.74,14.12-.29.2-.61.35-1.07.61-.05-.59-.13-1.03-.13-1.47ZM172.15,331.75c-6.99,4.55-13.99,9.08-20.97,13.66-.85.56-1.49.62-2.37.03-6.93-4.56-13.89-9.06-20.83-13.59-.34-.22-.66-.5-1.23-.93,1.28-.85,2.33-1.56,3.38-2.25,6.11-3.97,12.23-7.91,18.31-11.93,1.04-.68,1.82-.78,2.9-.06,6.69,4.45,13.43,8.79,20.16,13.17.48.31.95.63,1.56,1.05-.39.37-.63.65-.92.84ZM173.41,330.36c-.59-.36-1.04-.59-1.46-.88-6.74-4.59-13.46-9.22-20.22-13.77-.95-.64-1.32-1.32-1.33-2.61-.03-9.03-.14-18.07-.22-27.1,0-.57.04-1.14.06-1.92.59.36,1.04.6,1.46.88,6.74,4.59,13.46,9.22,20.23,13.77.95.64,1.31,1.33,1.32,2.62.03,9.03.14,18.06.22,27.1,0,.56-.03,1.13-.06,1.91ZM172.36,297.79c-6.78-4.49-13.62-8.9-20.43-13.34-.39-.26-.77-.54-1.27-.9.26-.29.43-.58.66-.73,7.17-4.67,14.34-9.32,21.51-13.99.6-.38,1.09-.43,1.7-.03,7.25,4.74,14.51,9.47,21.76,14.2.13.08.23.22.54.5-.51.38-.86.68-1.25.93-6.81,4.44-13.64,8.85-20.43,13.33-1.01.66-1.75.7-2.78.02ZM173.97,328.73c.07-9.2.16-18.41.23-27.61,0-.95.16-1.61.96-2.15,7.01-4.74,14-9.53,21-14.3.25-.17.53-.3,1.05-.59.02.87.05,1.45.04,2.02-.08,8.97-.18,17.94-.21,26.91,0,1.33-.33,2.1-1.36,2.8-6.85,4.59-13.66,9.28-20.48,13.93-.3.2-.62.35-1.11.62-.05-.63-.12-1.12-.11-1.61ZM219.36,331.78c-6.94,4.51-13.9,9.01-20.83,13.55-.72.47-1.3.62-2.1.1-7.05-4.64-14.14-9.22-21.21-13.83-.26-.17-.49-.38-.87-.69.42-.34.72-.62,1.05-.84,6.98-4.54,13.98-9.08,20.96-13.64.72-.47,1.3-.61,2.1-.09,7.06,4.64,14.14,9.22,21.21,13.83.26.17.49.39.97.77-.57.38-.92.62-1.27.85ZM220.89,330.37c-7.75-5.3-15.29-10.44-22.89-15.63-.09-10.17-.18-20.28-.28-30.81,2.07,1.41,3.77,2.57,5.47,3.73,5.42,3.7,10.84,7.42,16.28,11.08.89.59,1.27,1.25,1.27,2.47.04,9.03.14,18.06.22,27.09,0,.57-.04,1.13-.07,2.05ZM220.01,297.85c-6.88-4.54-13.79-9.01-20.7-13.5-.34-.22-.67-.5-1.25-.93,1.19-.8,2.15-1.44,3.11-2.07,6.24-4.06,12.49-8.09,18.71-12.19.93-.61,1.65-.72,2.63-.06,6.83,4.51,13.71,8.95,20.56,13.41.39.26.76.55,1.28.93-.41.36-.69.66-1.02.88-6.9,4.5-13.81,8.97-20.7,13.5-.94.62-1.66.7-2.64.05ZM221.46,328.53c.07-9.08.18-18.16.21-27.24,0-1.28.36-1.99,1.31-2.63,6.71-4.52,13.38-9.11,20.07-13.67.47-.32.93-.62,1.6-1.07.03.85.07,1.41.07,1.97-.08,9.02-.18,18.04-.21,27.06,0,1.28-.38,1.98-1.32,2.62-6.7,4.52-13.38,9.11-20.06,13.68-.47.32-.93.63-1.58,1.05-.05-.77-.1-1.28-.1-1.78ZM266.99,331.75c-6.99,4.54-13.98,9.07-20.96,13.64-.75.49-1.33.52-2.09.02-6.97-4.58-13.96-9.11-20.95-13.66-.34-.22-.65-.5-1.16-.91.6-.39,1.02-.68,1.44-.96,6.81-4.43,13.63-8.84,20.42-13.31.95-.63,1.67-.63,2.63,0,6.83,4.51,13.7,8.95,20.55,13.41.38.24.74.56,1.22.93-.45.35-.76.63-1.1.85ZM268.42,330.21c-.49-.27-.85-.44-1.18-.67-6.91-4.71-13.81-9.43-20.73-14.12-.75-.5-1.04-1.08-1.04-2.08-.05-9.26-.15-18.52-.23-27.78,0-.45.06-.89.1-1.51.49.27.85.44,1.18.66,6.91,4.72,13.81,9.44,20.73,14.13.75.5,1.04,1.08,1.04,2.08.05,9.26.15,18.52.23,27.78,0,.44-.05.89-.09,1.52ZM267.65,297.85c-6.97-4.58-13.96-9.11-20.95-13.66-.3-.19-.58-.43-1.01-.75.34-.31.58-.58.85-.76,7.07-4.6,14.15-9.19,21.22-13.82.69-.45,1.25-.52,1.96-.05,7.1,4.66,14.23,9.28,21.35,13.91.21.14.4.33.87.71-.59.39-.98.65-1.36.91-6.9,4.48-13.81,8.95-20.7,13.46-.78.51-1.4.6-2.23.05ZM269.01,328.65c.08-9.2.17-18.39.22-27.59,0-1.07.3-1.7,1.1-2.24,6.97-4.7,13.91-9.46,20.86-14.19.26-.18.54-.31.93-.54.07.46.17.83.17,1.21-.08,9.37-.17,18.75-.23,28.12,0,.82-.17,1.41-.84,1.87-7.18,4.87-14.34,9.76-21.51,14.65-.13.09-.28.13-.62.27-.03-.65-.08-1.1-.07-1.56ZM314.4,331.71c-6.86,4.47-13.73,8.91-20.57,13.41-.94.63-1.66.67-2.64.03-6.83-4.51-13.71-8.95-20.56-13.42-.39-.25-.75-.55-1.27-.93.42-.36.71-.66,1.04-.88,6.99-4.54,14-9.08,20.98-13.64.75-.49,1.33-.55,2.1-.04,7.07,4.64,14.16,9.23,21.23,13.84.25.16.48.39.96.78-.58.39-.92.62-1.27.84ZM304.48,322.45c-3.81-2.57-7.6-5.18-11.44-7.81-.09-10.17-.18-20.28-.28-30.8,7.85,5.36,15.37,10.48,22.98,15.68.09,10.11.19,20.23.28,30.72-4.05-2.55-7.77-5.23-11.54-7.78Z"/>
        </g>
      </g>
      <text/>
      <text class="cls-1" transform="translate(91.72 226.92) scale(1.09 1)"><tspan x="0" y="0">HAMED AL-ZAIN</tspan></text>
      <text/>
      <text class="cls-2" transform="translate(104.22 200.81) scale(.86 1)"><tspan x="0" y="0">HZ</tspan></text>
    </g>
  </g>
</svg>